<?xml version="1.0" standalone="no"?>
<!DOCTYPE svg PUBLIC "-//W3C//DTD SVG 20010904//EN"
 "http://www.w3.org/TR/2001/REC-SVG-20010904/DTD/svg10.dtd">
<svg version="1.0" xmlns="http://www.w3.org/2000/svg"
 width="512.000000pt" height="512.000000pt" viewBox="0 0 512.000000 512.000000"
 preserveAspectRatio="xMidYMid meet">
<metadata>
Created by potrace 1.14, written by Peter Selinger 2001-2017
</metadata>
<g transform="translate(0.000000,512.000000) scale(0.100000,-0.100000)"
fill="#000000" stroke="none">
<path d="M2366 4974 c-93 -57 -170 -104 -172 -104 -2 0 -76 -45 -165 -100
-200 -124 -183 -116 -364 -185 -82 -32 -168 -66 -190 -75 -22 -10 -107 -44
-190 -75 -82 -32 -163 -63 -180 -70 -16 -7 -45 -18 -62 -25 -41 -16 -41 10 -3
-450 5 -63 16 -205 25 -315 8 -110 20 -256 25 -325 6 -69 17 -206 25 -305 13
-173 31 -265 79 -405 8 -25 19 -63 25 -85 12 -47 24 -91 45 -160 24 -80 85
-291 117 -404 29 -100 29 -104 12 -123 -14 -16 -252 -253 -268 -267 -2 -1 -17
11 -34 28 -17 17 -34 31 -40 31 -5 0 -49 41 -98 90 -50 50 -95 90 -101 90 -6
0 -30 20 -53 45 -23 25 -47 45 -54 45 -6 0 -26 16 -44 35 -36 40 -51 43 -75
16 -16 -18 -6 -29 229 -264 135 -135 245 -248 245 -251 0 -3 -63 -69 -140
-145 -77 -76 -140 -143 -140 -148 0 -6 -109 -119 -242 -253 -134 -133 -242
-248 -240 -255 3 -14 -15 -15 -35 -2 -7 5 -13 5 -13 1 0 -3 -6 -2 -13 3 -28
23 -147 -19 -147 -52 0 -7 -7 -18 -15 -25 -10 -9 -14 -23 -11 -39 3 -14 7 -43
8 -65 1 -21 8 -40 15 -43 7 -3 13 -12 13 -20 0 -16 80 -100 122 -127 15 -10
32 -15 38 -11 5 3 10 1 10 -4 0 -6 17 -10 38 -9 22 0 44 -2 50 -6 6 -3 17 2
24 11 7 10 20 18 28 18 8 0 20 11 26 23 6 13 17 29 23 35 13 13 14 67 2 100
-9 23 -1 34 89 123 55 55 105 100 112 102 6 2 144 136 306 298 l295 294 247
-248 c245 -246 248 -249 274 -235 14 7 26 17 26 21 0 4 -20 28 -45 52 -24 24
-42 47 -40 51 3 4 -8 18 -24 31 -15 13 -36 37 -47 54 -10 16 -60 71 -111 123
-51 52 -93 98 -93 103 0 5 -11 21 -25 36 -14 15 -25 29 -25 32 0 3 39 45 88
92 l87 87 59 -122 c222 -458 214 -443 305 -545 47 -52 101 -114 120 -136 19
-23 60 -68 90 -101 115 -125 157 -172 190 -210 19 -22 63 -73 100 -113 l65
-73 51 54 c27 30 95 105 150 168 55 62 127 143 160 179 54 59 114 127 240 270
22 25 43 47 46 50 4 3 41 77 84 165 110 227 224 463 320 660 46 94 92 202 103
240 55 186 72 243 82 282 6 23 20 70 31 105 11 35 27 88 35 118 26 92 32 113
49 170 71 239 68 219 99 640 9 113 20 259 26 325 17 194 29 358 30 391 0 21
10 42 30 62 17 18 30 36 30 40 0 5 88 96 195 203 107 107 195 199 195 204 0 6
39 49 86 95 72 72 97 103 109 140 11 34 26 60 35 60 5 0 12 11 16 25 3 14 10
25 14 25 4 0 11 12 15 28 3 15 14 35 22 45 11 11 12 17 4 17 -8 0 -4 11 9 30
23 32 21 36 -8 20 -27 -14 -85 -39 -102 -42 -8 -2 -24 -12 -35 -24 -17 -17
-67 -45 -85 -48 -30 -5 -90 -50 -157 -119 -45 -46 -85 -82 -87 -79 -3 2 -54
-44 -114 -104 -60 -60 -116 -115 -125 -122 -14 -12 -31 -8 -114 24 -54 20
-102 41 -108 45 -5 5 -15 9 -23 9 -8 0 -28 6 -45 14 -18 7 -59 24 -92 36 -33
13 -73 29 -90 36 -16 7 -106 43 -198 78 -141 54 -199 84 -348 176 -99 60 -184
110 -190 110 -5 0 -9 4 -9 9 0 5 -8 12 -17 15 -10 3 -27 12 -38 19 -11 6 -77
47 -147 90 -69 42 -129 77 -134 76 -5 0 -85 -47 -178 -105z"/>
<path d="M260 640 c0 -5 5 -10 10 -10 6 0 10 5 10 10 0 6 -4 10 -10 10 -5 0
-10 -4 -10 -10z"/>
</g>
</svg>
